<?xml version="1.0" encoding="UTF-8" standalone="no"?>
<svg
   version="1.0"
   viewBox="0 0 500 625"
   preserveAspectRatio="xMidYMid meet"
   x="0px"
   y="0px"
   id="svg3"
   sodipodi:docname="foxxy.svg"
   inkscape:export-filename="noun-fox-6335261.png"
   inkscape:export-xdpi="96"
   inkscape:export-ydpi="96"
   inkscape:version="1.3.2 (091e20e, 2023-11-25)"
   xmlns:inkscape="http://www.inkscape.org/namespaces/inkscape"
   xmlns:sodipodi="http://sodipodi.sourceforge.net/DTD/sodipodi-0.dtd"
   xmlns="http://www.w3.org/2000/svg"
   xmlns:svg="http://www.w3.org/2000/svg">
  <defs
     id="defs3" />
  <sodipodi:namedview
     id="namedview3"
     pagecolor="#ffffff"
     bordercolor="#000000"
     borderopacity="0.25"
     inkscape:showpageshadow="2"
     inkscape:pageopacity="0.0"
     inkscape:pagecheckerboard="0"
     inkscape:deskcolor="#d1d1d1"
     inkscape:zoom="0.3776"
     inkscape:cx="250.26483"
     inkscape:cy="312.5"
     inkscape:window-width="1312"
     inkscape:window-height="449"
     inkscape:window-x="0"
     inkscape:window-y="25"
     inkscape:window-maximized="0"
     inkscape:current-layer="svg3" />
  <g
     transform="translate(0.000000,500.000000) scale(0.100000,-0.100000)"
     fill="#000000"
     stroke="none"
     id="g2">
    <path
       d="M2995 3647 c-83 -45 -139 -85 -214 -153 l-64 -58 -126 -1 -126 0 -68 51 c-126 94 -339 184 -392 164 -33 -13 -42 -34 -55 -131 -21 -154 15 -324 93 -440 l44 -66 -49 -99 c-62 -127 -105 -262 -122 -384 -18 -126 -120 -515 -157 -596 -16 -35 -36 -92 -44 -127 -19 -80 -19 -224 0 -305 17 -72 71 -185 109 -225 l26 -28 682 4 c758 3 722 0 873 73 331 159 518 539 476 968 -16 161 -38 258 -110 478 -68 209 -86 275 -111 408 -12 68 -19 88 -23 70 -4 -14 -18 -74 -32 -135 -39 -168 -97 -278 -205 -386 -47 -47 -148 -131 -226 -187 -147 -106 -259 -213 -294 -283 -12 -22 -23 -39 -25 -37 -2 1 -23 56 -48 120 l-45 117 33 11 c81 27 135 123 135 242 0 53 4 64 39 111 22 29 49 73 60 97 22 49 27 132 11 175 -9 22 -4 36 30 92 65 108 75 149 75 303 0 199 -25 225 -150 157z m81 -73 c4 -14 4 -69 2 -122 -5 -99 -17 -139 -64 -220 -24 -41 -27 -43 -44 -27 -17 15 -16 19 18 86 30 58 37 83 40 142 l3 72 -35 -79 c-19 -44 -56 -106 -81 -138 -25 -32 -45 -64 -45 -71 0 -8 12 -24 26 -38 55 -51 106 -162 87 -192 -4 -6 -21 -12 -37 -12 -58 0 -85 -71 -86 -217 l0 -88 -41 0 c-22 0 -49 -4 -59 -10 -25 -13 -44 11 -116 153 -31 61 -67 121 -80 134 -43 43 -130 25 -174 -37 l-21 -30 56 0 c103 0 155 -41 233 -182 23 -43 59 -95 80 -118 22 -22 37 -42 34 -45 -9 -9 -63 -5 -85 6 -12 6 -62 38 -110 71 -102 70 -178 106 -300 143 -94 28 -150 67 -161 110 -4 17 2 41 19 75 34 67 32 92 -14 153 -74 98 -101 190 -101 345 0 110 6 142 27 142 25 0 184 -70 242 -107 31 -19 79 -55 108 -79 50 -43 53 -44 95 -34 58 13 136 12 197 -2 l51 -11 58 59 c64 67 157 141 217 172 51 27 53 27 61 -4z m603 -836 c65 -191 93 -331 99 -500 3 -114 1 -163 -13 -225 -24 -112 -100 -262 -177 -350 -56 -63 -151 -152 -122 -113 6 8 28 37 48 64 46 61 118 202 141 276 17 55 46 212 40 218 -2 2 -13 -27 -25 -65 -50 -157 -162 -318 -286 -411 -150 -113 -374 -192 -544 -192 -57 0 -59 1 -98 48 -22 26 -61 83 -88 127 -84 139 -173 209 -281 222 -58 6 -148 -16 -184 -47 l-24 -19 35 9 c99 28 209 -3 294 -81 50 -45 116 -131 116 -150 0 -10 -47 4 -88 25 -47 24 -49 20 -11 -20 67 -70 187 -152 246 -170 32 -9 65 -19 73 -22 8 -2 -7 -11 -35 -19 -33 -10 -98 -15 -190 -16 -116 -1 -154 3 -218 21 -91 26 -162 60 -232 111 l-50 36 28 -47 c15 -27 24 -48 19 -48 -4 0 -34 15 -65 34 l-57 34 26 -33 c24 -32 108 -95 126 -95 4 0 8 -3 8 -7 0 -5 -43 -7 -95 -6 -89 1 -97 3 -131 31 -19 16 -54 54 -76 83 -22 30 -42 56 -45 59 -3 3 -3 -21 -1 -52 3 -32 1 -58 -3 -58 -4 0 -17 26 -29 57 -121 323 49 652 345 671 103 6 189 -22 302 -98 101 -68 233 -185 233 -206 0 -10 -14 -14 -52 -14 -65 0 -54 -13 28 -34 103 -27 143 -22 212 24 100 67 159 172 168 300 l4 65 -13 -40 c-25 -75 -106 -205 -127 -205 -16 0 -22 86 -11 165 7 46 23 103 38 134 34 71 133 169 260 259 224 159 317 249 384 376 32 59 32 59 45 35 7 -14 31 -77 53 -141z m-1257 -122 c31 -13 85 -43 120 -68 35 -25 81 -54 103 -66 38 -19 42 -26 87 -149 66 -180 78 -231 85 -370 8 -163 3 -165 -121 -45 -151 146 -264 220 -391 257 -114 34 -288 7 -377 -57 -16 -11 -31 -19 -33 -17 -3 4 46 197 81 315 18 63 65 136 106 165 88 63 235 78 340 35z m418 -6 c0 -19 -31 -23 -48 -6 -15 15 -14 16 16 16 18 0 32 -5 32 -10z"
       id="path1"
       style="fill:#f9f9f9" />
    <path
       d="M2060 3458 c0 -188 84 -358 175 -358 50 0 101 33 125 81 37 71 20 128 -61 204 -51 48 -177 115 -216 115 -20 0 -23 -5 -23 -42z"
       id="path2"
       style="fill:#f2f2f2" />
  </g>
  <text
     x="0"
     y="515"
     fill="#000000"
     font-size="5px"
     font-weight="bold"
     font-family="'Helvetica Neue', Helvetica, Arial-Unicode, Arial, Sans-serif"
     id="text2">Created by Joy</text>
  <text
     x="0"
     y="520"
     fill="#000000"
     font-size="5px"
     font-weight="bold"
     font-family="'Helvetica Neue', Helvetica, Arial-Unicode, Arial, Sans-serif"
     id="text3">from the Noun Project</text>
</svg>
